<mxfile host="Electron" modified="2024-03-26T16:51:58.424Z" agent="Mozilla/5.0 (Windows NT 10.0; Win64; x64) AppleWebKit/537.36 (KHTML, like Gecko) draw.io/24.1.0 Chrome/120.0.6099.109 Electron/28.1.0 Safari/537.36" etag="5C7eU7HqejQ4a3nyNylG" version="24.1.0" type="device">
  <diagram name="Page-1" id="FBYsdal8GXvZE6SGu7Mt">
    <mxGraphModel dx="2232" dy="2294" grid="1" gridSize="10" guides="1" tooltips="1" connect="1" arrows="1" fold="1" page="1" pageScale="1" pageWidth="827" pageHeight="1169" math="0" shadow="0">
      <root>
        <mxCell id="0" />
        <mxCell id="1" parent="0" />
        <mxCell id="IR-27HBc0gsd7sG7MWDK-14" value="Cloud run services" style="shape=module;align=left;spacingLeft=20;align=center;verticalAlign=top;whiteSpace=wrap;html=1;" vertex="1" parent="1">
          <mxGeometry x="80" y="-680" width="1040" height="770" as="geometry" />
        </mxCell>
        <mxCell id="IR-27HBc0gsd7sG7MWDK-6" value="&lt;p style=&quot;margin:0px;margin-top:4px;text-align:center;&quot;&gt;Keyword_&lt;span style=&quot;background-color: initial;&quot;&gt;service&lt;/span&gt;&lt;/p&gt;&lt;hr size=&quot;1&quot; style=&quot;border-style:solid;&quot;&gt;&lt;p style=&quot;margin:0px;margin-left:4px;&quot;&gt;&lt;/p&gt;&lt;p style=&quot;margin:0px;margin-left:4px;&quot;&gt;+ Extract_primary_and_secondary_keywords_from-context(): List: Keywords&lt;/p&gt;" style="verticalAlign=top;align=left;overflow=fill;html=1;whiteSpace=wrap;" vertex="1" parent="1">
          <mxGeometry x="160" y="-600" width="350" height="90" as="geometry" />
        </mxCell>
        <mxCell id="IR-27HBc0gsd7sG7MWDK-5" value="&lt;p style=&quot;margin:0px;margin-top:4px;text-align:center;&quot;&gt;Scraping_service&lt;br&gt;&lt;/p&gt;&lt;hr size=&quot;1&quot; style=&quot;border-style:solid;&quot;&gt;&lt;p style=&quot;margin:0px;margin-left:4px;&quot;&gt;&lt;/p&gt;&lt;p style=&quot;margin:0px;margin-left:4px;&quot;&gt;+ get_website_content(): Content&lt;/p&gt;&lt;p style=&quot;margin:0px;margin-left:4px;&quot;&gt;&lt;br&gt;&lt;/p&gt;" style="verticalAlign=top;align=left;overflow=fill;html=1;whiteSpace=wrap;" vertex="1" parent="1">
          <mxGeometry x="160" y="-370" width="350" height="90" as="geometry" />
        </mxCell>
        <mxCell id="IR-27HBc0gsd7sG7MWDK-16" value="Cloud functions" style="shape=module;align=left;spacingLeft=20;align=center;verticalAlign=top;whiteSpace=wrap;html=1;" vertex="1" parent="1">
          <mxGeometry x="1160" y="-680" width="620" height="390" as="geometry" />
        </mxCell>
        <mxCell id="IR-27HBc0gsd7sG7MWDK-11" value="&lt;p style=&quot;margin:0px;margin-top:4px;text-align:center;&quot;&gt;&lt;b&gt;SERP_check_service&lt;/b&gt;&lt;/p&gt;&lt;hr size=&quot;1&quot; style=&quot;border-style:solid;&quot;&gt;&lt;p style=&quot;margin:0px;margin-left:4px;&quot;&gt;&lt;/p&gt;&lt;p style=&quot;margin:0px;margin-left:4px;&quot;&gt;+ get_SERP_position_data(): Data&lt;/p&gt;" style="verticalAlign=top;align=left;overflow=fill;html=1;whiteSpace=wrap;" vertex="1" parent="1">
          <mxGeometry x="1241" y="-600" width="160" height="90" as="geometry" />
        </mxCell>
        <mxCell id="IR-27HBc0gsd7sG7MWDK-9" value="&lt;p style=&quot;margin:0px;margin-top:4px;text-align:center;&quot;&gt;&lt;b&gt;Keyword_optimization_service&lt;/b&gt;&lt;/p&gt;&lt;hr size=&quot;1&quot; style=&quot;border-style:solid;&quot;&gt;&lt;p style=&quot;margin:0px;margin-left:4px;&quot;&gt;&lt;/p&gt;&lt;p style=&quot;margin:0px;margin-left:4px;&quot;&gt;+ get_search_volume_data(): SeachVolumeDate&lt;/p&gt;&lt;p style=&quot;margin:0px;margin-left:4px;&quot;&gt;&lt;br&gt;&lt;/p&gt;&lt;p style=&quot;margin:0px;margin-left:4px;&quot;&gt;+ optimize_primary_and_secondary_keywords(): void&lt;/p&gt;" style="verticalAlign=top;align=left;overflow=fill;html=1;whiteSpace=wrap;" vertex="1" parent="1">
          <mxGeometry x="690" y="-600" width="294" height="90" as="geometry" />
        </mxCell>
        <mxCell id="IR-27HBc0gsd7sG7MWDK-18" value="Use" style="endArrow=open;endSize=12;dashed=1;html=1;rounded=0;entryX=0.5;entryY=1;entryDx=0;entryDy=0;exitX=0.5;exitY=0;exitDx=0;exitDy=0;" edge="1" parent="1" source="IR-27HBc0gsd7sG7MWDK-5" target="IR-27HBc0gsd7sG7MWDK-6">
          <mxGeometry width="160" relative="1" as="geometry">
            <mxPoint x="180" y="-120" as="sourcePoint" />
            <mxPoint x="340" y="-120" as="targetPoint" />
          </mxGeometry>
        </mxCell>
        <mxCell id="IR-27HBc0gsd7sG7MWDK-19" value="Use" style="endArrow=open;endSize=12;dashed=1;html=1;rounded=0;exitX=1;exitY=0.5;exitDx=0;exitDy=0;entryX=0;entryY=0.5;entryDx=0;entryDy=0;" edge="1" parent="1" source="IR-27HBc0gsd7sG7MWDK-6" target="IR-27HBc0gsd7sG7MWDK-9">
          <mxGeometry width="160" relative="1" as="geometry">
            <mxPoint x="640" y="-430" as="sourcePoint" />
            <mxPoint x="800" y="-430" as="targetPoint" />
          </mxGeometry>
        </mxCell>
        <mxCell id="IR-27HBc0gsd7sG7MWDK-20" value="Use" style="endArrow=open;endSize=12;dashed=1;html=1;rounded=0;exitX=1;exitY=0.5;exitDx=0;exitDy=0;entryX=0;entryY=0.5;entryDx=0;entryDy=0;" edge="1" parent="1" source="IR-27HBc0gsd7sG7MWDK-9" target="IR-27HBc0gsd7sG7MWDK-11">
          <mxGeometry width="160" relative="1" as="geometry">
            <mxPoint x="1070" y="-550" as="sourcePoint" />
            <mxPoint x="1230" y="-550" as="targetPoint" />
          </mxGeometry>
        </mxCell>
      </root>
    </mxGraphModel>
  </diagram>
</mxfile>
